# xmcd
#
# Track frame offsets:
#	150
#	3766
#	20556
#	20862
#	38514
#	52885
#	53898
#	67596
#	84605
#	100074
#	100535
#	119098
#	137229
#	152420
#	152735
#	164802
#	181734
#	182235
#	196400
#	213937
#	214851
#	236951
#
# Disc length: 3180 seconds
#
# Revision: 0
# Processed by: cddbd v1.5.2PL0 Copyright (c) Steve Scherf et al.
# Submitted via: EasyCDDAExtractor 9.1.3.1
#
DISCID=260c6a16
DTITLE=Various Artist - Desperate Housewives
DYEAR=2005
DGENRE=Country
TTITLE0=Mary Alice - (show clip)
TTITLE1=SHeDaisy - God Bless The American Housewife
TTITLE2=Edie - (show clip)
TTITLE3=Shania Twain - Shoes
TTITLE4=Anna Nalick - Band Of Gold
TTITLE5=Lynette - (show clip)
TTITLE6=Liz Phair - Mother's Little Helper
TTITLE7=Indigo Girls - Mrs. Robinson
TTITLE8=Martina McBride - Harper Valley PTA
TTITLE9=Bree - (show clip)
TTITLE10=LeAnn Rimes - We're Running Out Of Time
TTITLE11=Joss Stone - Treat Me Right (I'm Yours For Life)
TTITLE12=Sara Evans - One's On The Way
TTITLE13=Gabrielle - (show clip)
TTITLE14=Macy Gray - Boom Boom
TTITLE15=Gloria Estefan - Young Hearts Run Free
TTITLE16=Susan - (show clip)
TTITLE17=Idina Menzel - Damsel In Distress
TTITLE18=KD Lang - Dream Of The Everyday Housewife
TTITLE19=Mary Alice - (show clip)
TTITLE20=Danny Elfman - Desperate Housewives Theme
TTITLE21=Data - ()
EXTD=
EXTT0=
EXTT1=
EXTT2=
EXTT3=
EXTT4=
EXTT5=
EXTT6=
EXTT7=
EXTT8=
EXTT9=
EXTT10=
EXTT11=
EXTT12=
EXTT13=
EXTT14=
EXTT15=
EXTT16=
EXTT17=
EXTT18=
EXTT19=
EXTT20=
EXTT21=
PLAYORDER=
